<svg width="44" height="32" viewBox="0 0 44 32" fill="none" xmlns="http://www.w3.org/2000/svg">
<path d="M0.5 15.5C0.223858 15.5 2.41411e-08 15.7239 0 16C-2.41411e-08 16.2761 0.223858 16.5 0.5 16.5L0.5 15.5ZM29.8536 16.3536C30.0488 16.1583 30.0488 15.8417 29.8536 15.6464L26.6716 12.4645C26.4763 12.2692 26.1597 12.2692 25.9645 12.4645C25.7692 12.6597 25.7692 12.9763 25.9645 13.1716L28.7929 16L25.9645 18.8284C25.7692 19.0237 25.7692 19.3403 25.9645 19.5355C26.1597 19.7308 26.4763 19.7308 26.6716 19.5355L29.8536 16.3536ZM0.5 16.5L29.5 16.5L29.5 15.5L0.5 15.5L0.5 16.5Z" fill="#002856"/>
<circle cx="27.5" cy="16" r="15.5" stroke="#002856"/>
</svg>
