<svg width="247" height="183" viewBox="0 0 247 183" fill="none" xmlns="http://www.w3.org/2000/svg">
<mask id="mask0_141_279" style="mask-type:luminance" maskUnits="userSpaceOnUse" x="70" y="22" width="126" height="100">
<path d="M195.977 23.6413C195.675 23.8388 194.656 24.3853 193.577 24.9627C192.567 25.5052 191.42 26.1187 191.151 26.2962L191.018 26.358C188.709 27.0528 187.558 29.3281 186.34 31.7377C185.913 32.5808 185.471 33.4541 184.977 34.2499C181.227 40.2921 174.108 42.2974 167.224 44.2364C164.576 44.9835 161.839 45.7529 159.347 46.7423C148.95 50.8754 140.086 60.5728 135.026 73.3466C134.625 74.3643 134.245 75.3944 133.865 76.4278C132.698 79.6038 131.491 82.8871 129.597 85.775C127.568 88.8647 124.816 91.4049 122.155 93.8584C115.118 100.355 107.839 107.073 99.4802 112.338C90.3711 118.074 79.5159 121.57 70.4411 121.69L70.4278 120.682C79.3245 120.563 89.9842 117.124 98.9426 111.485C107.225 106.268 114.468 99.5834 121.472 93.1185C124.087 90.705 126.794 88.2081 128.754 85.2205C130.584 82.4334 131.772 79.2026 132.92 76.0806C133.302 75.0386 133.683 74.0002 134.089 72.9762C139.25 59.9443 148.322 50.0422 158.977 45.8067C161.514 44.7969 164.279 44.0181 166.952 43.2659C173.958 41.2925 180.578 39.4282 184.12 33.7171C184.592 32.96 185.023 32.1076 185.44 31.2819C186.69 28.8097 187.983 26.254 190.66 25.4125C191.033 25.1811 192.039 24.6429 193.1 24.0738C194.113 23.5306 195.161 22.9683 195.43 22.7958L195.977 23.6413Z" fill="white"/>
</mask>
<g mask="url(#mask0_141_279)">
<path d="M195.977 23.6413C195.675 23.8388 194.656 24.3853 193.577 24.9627C192.567 25.5052 191.42 26.1187 191.151 26.2962L191.018 26.358C188.709 27.0528 187.558 29.3281 186.34 31.7377C185.913 32.5808 185.471 33.4541 184.977 34.2499C181.227 40.2921 174.108 42.2974 167.224 44.2364C164.576 44.9835 161.839 45.7529 159.347 46.7423C148.95 50.8754 140.086 60.5728 135.026 73.3466C134.625 74.3643 134.245 75.3944 133.865 76.4278C132.698 79.6038 131.491 82.8871 129.597 85.775C127.568 88.8647 124.816 91.4049 122.155 93.8584C115.118 100.355 107.839 107.073 99.4802 112.338C90.3711 118.074 79.5159 121.57 70.4411 121.69L70.4278 120.682C79.3245 120.563 89.9842 117.124 98.9426 111.485C107.225 106.268 114.468 99.5834 121.472 93.1185C124.087 90.705 126.794 88.2081 128.754 85.2205C130.584 82.4334 131.772 79.2026 132.92 76.0806C133.302 75.0386 133.683 74.0002 134.089 72.9762C139.25 59.9443 148.322 50.0422 158.977 45.8067C161.514 44.7969 164.279 44.0181 166.952 43.2659C173.958 41.2925 180.578 39.4282 184.12 33.7171C184.592 32.96 185.023 32.1076 185.44 31.2819C186.69 28.8097 187.983 26.254 190.66 25.4125C191.033 25.1811 192.039 24.6429 193.1 24.0738C194.113 23.5306 195.161 22.9683 195.43 22.7958L195.977 23.6413Z" fill="url(#paint0_linear_141_279)"/>
</g>
<mask id="mask1_141_279" style="mask-type:luminance" maskUnits="userSpaceOnUse" x="90" y="120" width="41" height="16">
<path d="M114.577 128.985C111.071 130.161 108.68 131.559 105.157 132.434C102.816 133.055 100.44 133.499 98.1049 134.086C96.4677 134.56 94.8587 135.151 93.1557 135.339C92.47 135.429 91.1206 135.533 90.3755 135.482C91.0649 135.63 91.7629 135.671 92.4721 135.71C95.4604 135.866 98.3387 134.837 101.3 134.552C105.997 134.077 110.22 132.185 114.118 130.655C116.644 129.796 119.187 128.932 121.447 127.467C124.576 125.432 127.218 122.723 130.009 120.259C124.923 123.779 120.259 127.516 114.577 128.985Z" fill="white"/>
</mask>
<g mask="url(#mask1_141_279)">
<path d="M114.577 128.985C111.071 130.161 108.68 131.559 105.157 132.434C102.816 133.055 100.44 133.499 98.1049 134.086C96.4677 134.56 94.8587 135.151 93.1557 135.339C92.47 135.429 91.1206 135.533 90.3755 135.482C91.0649 135.63 91.7629 135.671 92.4721 135.71C95.4604 135.866 98.3387 134.837 101.3 134.552C105.997 134.077 110.22 132.185 114.118 130.655C116.644 129.796 119.187 128.932 121.447 127.467C124.576 125.432 127.218 122.723 130.009 120.259C124.923 123.779 120.259 127.516 114.577 128.985Z" fill="url(#paint1_linear_141_279)"/>
</g>
<mask id="mask2_141_279" style="mask-type:luminance" maskUnits="userSpaceOnUse" x="19" y="21" width="190" height="135">
<path d="M20.5859 123.339C38.2847 121.701 56.7501 125.13 72.6744 133.026C76.7575 135.051 80.748 137.394 84.6064 139.659C88.3439 141.852 92.2077 144.12 96.1408 146.092C101.91 148.983 108.092 150.89 113.963 151.656C106.862 150.056 100.071 147.048 94.322 142.739C90.5377 139.906 87.1384 136.529 83.8508 133.262C81.9784 131.403 80.0424 129.478 78.0609 127.681C71.8398 122.031 66.2654 118.795 60.6512 117.596C61.1115 118.101 61.5688 118.608 62.0256 119.113L64.6776 122.042L61.9817 120.527C58.3106 118.464 54.2303 117.378 50.3675 116.509C45.402 115.391 40.1018 114.513 34.9688 115.649C30.3261 116.674 22.5152 119.005 20.5859 123.339ZM206.588 46.9195L198.06 34.6751C200.387 43.2542 203.092 51.231 205.746 58.9531L205.974 59.6163C207.741 64.7476 209.749 70.5648 207.822 75.8533L207.115 77.7994L206.849 75.7461C206.727 74.8054 206.551 73.9646 206.33 73.2472C207.168 80.8819 204.274 88.4696 201.465 95.833C200.592 98.1266 199.687 100.497 198.923 102.811C197.947 105.767 197.143 108.84 196.366 111.811C195.202 116.254 194 120.846 192.199 125.17C190.122 130.147 185.3 138.928 176.316 141.835L174.43 142.447L175.797 141.009C176.954 139.793 178.099 138.719 179.208 137.68C181.246 135.768 183.117 134.015 184.432 131.898C179.856 137.633 172.431 141.138 165.071 144.237L147.177 151.78C140.438 154.624 134.355 156.87 128.128 155.53L125.192 154.899L128.174 154.536C131.983 154.074 135.705 152.967 139.14 151.286C133.872 152.716 128.281 153.239 122.699 152.898L122.701 152.917C114.411 153.601 104.566 151.441 95.6889 146.994C91.7272 145.007 87.8479 142.731 84.0964 140.528C80.2535 138.272 76.2769 135.938 72.2259 133.929C56.2336 125.999 37.6477 122.62 19.8925 124.419L19.1582 124.493L19.3573 123.782C20.7648 118.744 28.5052 116.043 34.7521 114.664C40.0767 113.486 45.5109 114.382 50.5899 115.526C53.7032 116.224 56.9602 117.067 60.0561 118.44C59.6705 118.017 59.2849 117.595 58.8986 117.175L57.9304 116.121L59.347 116.333C65.6638 117.287 71.8254 120.656 78.7378 126.934C80.7365 128.746 82.6811 130.679 84.5609 132.547C87.8255 135.789 91.1998 139.14 94.9258 141.934C108.498 152.107 127.981 154.873 143.406 148.815L147.598 147.169L143.874 149.702C140.248 152.167 136.149 153.94 131.862 154.917C136.644 154.932 141.507 153.079 146.785 150.85L164.68 143.309C173.581 139.558 182.577 135.214 186.23 127.052L187.767 123.609L187.188 127.335C186.412 132.306 183.392 135.137 179.896 138.416C179.349 138.93 178.791 139.452 178.228 139.996C185.419 136.597 189.439 129.165 191.266 124.782C193.043 120.524 194.236 115.965 195.391 111.555C196.172 108.569 196.979 105.48 197.965 102.495C198.739 100.159 199.646 97.7782 200.524 95.4734C203.63 87.3313 206.841 78.9087 204.85 70.6103L204.483 69.0799L205.67 70.1108C206.532 70.86 207.023 72.1244 207.426 73.4147C208.161 69.0563 206.568 64.434 205.02 59.9439L204.792 59.2807C201.854 50.734 198.813 41.8941 196.376 32.2009L195.707 29.5317L202.71 39.5863C200.554 33.3461 198.944 26.674 198.376 21.4566L199.378 21.3465C200.051 27.5336 202.211 35.7998 205.013 42.9192L206.588 46.9195Z" fill="white"/>
</mask>
<g mask="url(#mask2_141_279)">
<path d="M20.5859 123.339C38.2847 121.701 56.7501 125.13 72.6744 133.026C76.7575 135.051 80.748 137.394 84.6064 139.659C88.3439 141.852 92.2077 144.12 96.1408 146.092C101.91 148.983 108.092 150.89 113.963 151.656C106.862 150.056 100.071 147.048 94.322 142.739C90.5377 139.906 87.1384 136.529 83.8508 133.262C81.9784 131.403 80.0424 129.478 78.0609 127.681C71.8398 122.031 66.2654 118.795 60.6512 117.596C61.1115 118.101 61.5688 118.608 62.0256 119.113L64.6776 122.042L61.9817 120.527C58.3106 118.464 54.2303 117.378 50.3675 116.509C45.402 115.391 40.1018 114.513 34.9688 115.649C30.3261 116.674 22.5152 119.005 20.5859 123.339ZM206.588 46.9195L198.06 34.6751C200.387 43.2542 203.092 51.231 205.746 58.9531L205.974 59.6163C207.741 64.7476 209.749 70.5648 207.822 75.8533L207.115 77.7994L206.849 75.7461C206.727 74.8054 206.551 73.9646 206.33 73.2472C207.168 80.8819 204.274 88.4696 201.465 95.833C200.592 98.1266 199.687 100.497 198.923 102.811C197.947 105.767 197.143 108.84 196.366 111.811C195.202 116.254 194 120.846 192.199 125.17C190.122 130.147 185.3 138.928 176.316 141.835L174.43 142.447L175.797 141.009C176.954 139.793 178.099 138.719 179.208 137.68C181.246 135.768 183.117 134.015 184.432 131.898C179.856 137.633 172.431 141.138 165.071 144.237L147.177 151.78C140.438 154.624 134.355 156.87 128.128 155.53L125.192 154.899L128.174 154.536C131.983 154.074 135.705 152.967 139.14 151.286C133.872 152.716 128.281 153.239 122.699 152.898L122.701 152.917C114.411 153.601 104.566 151.441 95.6889 146.994C91.7272 145.007 87.8479 142.731 84.0964 140.528C80.2535 138.272 76.2769 135.938 72.2259 133.929C56.2336 125.999 37.6477 122.62 19.8925 124.419L19.1582 124.493L19.3573 123.782C20.7648 118.744 28.5052 116.043 34.7521 114.664C40.0767 113.486 45.5109 114.382 50.5899 115.526C53.7032 116.224 56.9602 117.067 60.0561 118.44C59.6705 118.017 59.2849 117.595 58.8986 117.175L57.9304 116.121L59.347 116.333C65.6638 117.287 71.8254 120.656 78.7378 126.934C80.7365 128.746 82.6811 130.679 84.5609 132.547C87.8255 135.789 91.1998 139.14 94.9258 141.934C108.498 152.107 127.981 154.873 143.406 148.815L147.598 147.169L143.874 149.702C140.248 152.167 136.149 153.94 131.862 154.917C136.644 154.932 141.507 153.079 146.785 150.85L164.68 143.309C173.581 139.558 182.577 135.214 186.23 127.052L187.767 123.609L187.188 127.335C186.412 132.306 183.392 135.137 179.896 138.416C179.349 138.93 178.791 139.452 178.228 139.996C185.419 136.597 189.439 129.165 191.266 124.782C193.043 120.524 194.236 115.965 195.391 111.555C196.172 108.569 196.979 105.48 197.965 102.495C198.739 100.159 199.646 97.7782 200.524 95.4734C203.63 87.3313 206.841 78.9087 204.85 70.6103L204.483 69.0799L205.67 70.1108C206.532 70.86 207.023 72.1244 207.426 73.4147C208.161 69.0563 206.568 64.434 205.02 59.9439L204.792 59.2807C201.854 50.734 198.813 41.8941 196.376 32.2009L195.707 29.5317L202.71 39.5863C200.554 33.3461 198.944 26.674 198.376 21.4566L199.378 21.3465C200.051 27.5336 202.211 35.7998 205.013 42.9192L206.588 46.9195Z" fill="url(#paint2_linear_141_279)"/>
</g>
<mask id="mask3_141_279" style="mask-type:luminance" maskUnits="userSpaceOnUse" x="135" y="0" width="79" height="117">
<path d="M205.831 7.77638C203.108 11.6651 200.741 15.8128 198.687 20.0853C197.343 23.1224 195.954 26.1408 194.619 29.1724C193.332 32.6441 192.167 36.155 190.864 39.6082C187.269 48.5058 184.21 56.6712 180.421 64.8571C175.663 74.9796 170.128 84.8078 162.876 92.7791C159.194 96.6224 155.778 100.73 151.641 104.124C150.419 105.216 149.299 106.104 148.138 106.98C150.042 105.057 151.931 103.115 153.651 101.013C155.022 99.4721 156.576 98.1123 157.916 96.5384C159.87 94.0172 161.691 91.4057 163.543 88.817C166.325 84.9977 168.505 80.8041 170.895 76.7353C173.12 73.524 174.957 70.0709 176.919 66.7016C178.349 64.1448 180.411 60.945 181.165 58.7475C182.07 56.5909 183.057 54.329 183.671 51.6586C184.207 49.8112 185.326 47.2222 185.761 45.9988C187.627 40.8463 190.577 35.5159 193.343 29.829C195.971 24.4953 198.446 19.0836 201.262 13.8349C203.27 10.4828 204.637 7.18892 207.326 4.76213C207.918 4.16421 208.626 3.64766 209.386 3.14968C208.054 4.59847 206.875 6.15017 205.831 7.77638ZM212.857 0.0229962C210.717 1.06644 208.475 1.97879 206.642 3.54644C203.602 6.04831 202.064 9.76607 200.072 13.0696C197.355 18.0529 195.047 23.2396 192.494 28.306C191.373 30.6862 190.089 33.2065 188.845 35.6835C188.638 35.8851 188.429 36.0755 188.21 36.2719C184.845 39.0905 181.734 42.1956 178.815 45.4581C182.188 42.9516 185.375 40.1581 188.17 37.0125C188.187 36.9965 188.193 36.9849 188.21 36.9608C186.763 39.8884 185.43 42.7249 184.585 45.1677C183.617 47.6914 182.486 50.1706 181.906 52.8235C181.118 55.4802 180.339 56.9532 179.518 59.0953C176.845 64.3823 172.783 71.1809 169.26 76.7591C166.469 81.7426 163.57 86.6717 160.122 91.2351C158.812 92.9988 157.57 94.8567 156.694 95.8882C155.251 97.5307 153.633 99.0123 152.236 100.685C150.57 102.88 148.549 104.749 146.771 106.836C145.316 108.484 143.764 110.051 142.178 111.563C139.974 113.265 137.531 115.053 135.053 116.547C136.392 115.894 137.707 115.203 139.006 114.477C138.384 115.031 136.706 115.48 136.084 116.034C137.316 115.189 139.55 114.405 140.729 113.48C148.228 109.098 155.082 103.572 160.79 97.0392C167.791 90.0859 173.299 81.8108 177.923 73.1267C183.709 61.9759 187.591 51.478 192.262 39.8674C193.44 36.6885 194.99 32.2395 195.908 29.6934C197.408 26.3867 198.86 23.0568 200.381 19.7543C203.895 12.9873 207.628 6.77148 212.654 1.43554C212.813 1.25672 212.995 1.08172 213.189 0.903423L212.857 0.0229962Z" fill="white"/>
</mask>
<g mask="url(#mask3_141_279)">
<path d="M205.831 7.77638C203.108 11.6651 200.741 15.8128 198.687 20.0853C197.343 23.1224 195.954 26.1408 194.619 29.1724C193.332 32.6441 192.167 36.155 190.864 39.6082C187.269 48.5058 184.21 56.6712 180.421 64.8571C175.663 74.9796 170.128 84.8078 162.876 92.7791C159.194 96.6224 155.778 100.73 151.641 104.124C150.419 105.216 149.299 106.104 148.138 106.98C150.042 105.057 151.931 103.115 153.651 101.013C155.022 99.4721 156.576 98.1123 157.916 96.5384C159.87 94.0172 161.691 91.4057 163.543 88.817C166.325 84.9977 168.505 80.8041 170.895 76.7353C173.12 73.524 174.957 70.0709 176.919 66.7016C178.349 64.1448 180.411 60.945 181.165 58.7475C182.07 56.5909 183.057 54.329 183.671 51.6586C184.207 49.8112 185.326 47.2222 185.761 45.9988C187.627 40.8463 190.577 35.5159 193.343 29.829C195.971 24.4953 198.446 19.0836 201.262 13.8349C203.27 10.4828 204.637 7.18892 207.326 4.76213C207.918 4.16421 208.626 3.64766 209.386 3.14968C208.054 4.59847 206.875 6.15017 205.831 7.77638ZM212.857 0.0229962C210.717 1.06644 208.475 1.97879 206.642 3.54644C203.602 6.04831 202.064 9.76607 200.072 13.0696C197.355 18.0529 195.047 23.2396 192.494 28.306C191.373 30.6862 190.089 33.2065 188.845 35.6835C188.638 35.8851 188.429 36.0755 188.21 36.2719C184.845 39.0905 181.734 42.1956 178.815 45.4581C182.188 42.9516 185.375 40.1581 188.17 37.0125C188.187 36.9965 188.193 36.9849 188.21 36.9608C186.763 39.8884 185.43 42.7249 184.585 45.1677C183.617 47.6914 182.486 50.1706 181.906 52.8235C181.118 55.4802 180.339 56.9532 179.518 59.0953C176.845 64.3823 172.783 71.1809 169.26 76.7591C166.469 81.7426 163.57 86.6717 160.122 91.2351C158.812 92.9988 157.57 94.8567 156.694 95.8882C155.251 97.5307 153.633 99.0123 152.236 100.685C150.57 102.88 148.549 104.749 146.771 106.836C145.316 108.484 143.764 110.051 142.178 111.563C139.974 113.265 137.531 115.053 135.053 116.547C136.392 115.894 137.707 115.203 139.006 114.477C138.384 115.031 136.706 115.48 136.084 116.034C137.316 115.189 139.55 114.405 140.729 113.48C148.228 109.098 155.082 103.572 160.79 97.0392C167.791 90.0859 173.299 81.8108 177.923 73.1267C183.709 61.9759 187.591 51.478 192.262 39.8674C193.44 36.6885 194.99 32.2395 195.908 29.6934C197.408 26.3867 198.86 23.0568 200.381 19.7543C203.895 12.9873 207.628 6.77148 212.654 1.43554C212.813 1.25672 212.995 1.08172 213.189 0.903423L212.857 0.0229962Z" fill="url(#paint3_linear_141_279)"/>
</g>
<mask id="mask4_141_279" style="mask-type:luminance" maskUnits="userSpaceOnUse" x="119" y="86" width="37" height="11">
<path d="M144.028 89.5891C140.364 90.5987 136.803 91.9535 133.076 92.7317C128.521 94.2007 123.97 95.6773 119.271 96.6535C124.175 96.1651 128.907 94.9311 133.656 93.6811C137.393 93.0166 140.93 91.6549 144.525 90.4987C147.837 89.301 151.242 88.3629 154.525 87.1009C154.707 87.011 155.042 86.8894 155.108 86.9028C154.913 86.8704 154.716 86.9675 154.533 87.0169C151.033 87.8663 147.479 88.5207 144.028 89.5891Z" fill="white"/>
</mask>
<g mask="url(#mask4_141_279)">
<path d="M144.028 89.5891C140.364 90.5987 136.803 91.9535 133.076 92.7317C128.521 94.2007 123.97 95.6773 119.271 96.6535C124.175 96.1651 128.907 94.9311 133.656 93.6811C137.393 93.0166 140.93 91.6549 144.525 90.4987C147.837 89.301 151.242 88.3629 154.525 87.1009C154.707 87.011 155.042 86.8894 155.108 86.9028C154.913 86.8704 154.716 86.9675 154.533 87.0169C151.033 87.8663 147.479 88.5207 144.028 89.5891Z" fill="url(#paint4_linear_141_279)"/>
</g>
<mask id="mask5_141_279" style="mask-type:luminance" maskUnits="userSpaceOnUse" x="130" y="98" width="1" height="1">
<path d="M130.901 98.0625C130.909 98.0605 130.911 98.0695 130.914 98.0801L130.911 98.0695C130.911 98.0695 130.911 98.0695 130.901 98.0625Z" fill="white"/>
</mask>
<g mask="url(#mask5_141_279)">
<path d="M130.901 98.0625C130.909 98.0605 130.911 98.0695 130.914 98.0801L130.911 98.0695C130.911 98.0695 130.911 98.0695 130.901 98.0625Z" fill="url(#paint5_linear_141_279)"/>
</g>
<mask id="mask6_141_279" style="mask-type:luminance" maskUnits="userSpaceOnUse" x="114" y="98" width="17" height="5">
<path d="M114.094 102.91C117.972 101.719 121.827 100.407 125.82 99.6848C127.56 99.32 129.2 98.5441 130.934 98.1694C130.951 98.1454 130.94 98.1057 130.911 98.0825C128.337 98.5248 126.438 99.0289 123.948 99.3654C120.515 100.031 117.263 101.45 114.094 102.91Z" fill="white"/>
</mask>
<g mask="url(#mask6_141_279)">
<path d="M114.094 102.91C117.972 101.719 121.827 100.407 125.82 99.6848C127.56 99.32 129.2 98.5441 130.934 98.1694C130.951 98.1454 130.94 98.1057 130.911 98.0825C128.337 98.5248 126.438 99.0289 123.948 99.3654C120.515 100.031 117.263 101.45 114.094 102.91Z" fill="url(#paint6_linear_141_279)"/>
</g>
<mask id="mask7_141_279" style="mask-type:luminance" maskUnits="userSpaceOnUse" x="108" y="103" width="18" height="5">
<path d="M116.362 104.003C113.497 104.923 111.309 106.14 108.518 107.102C111.728 106.455 114.706 105.068 117.884 104.306C120.1 103.727 121.94 103.732 124.396 103.31C124.603 103.264 124.887 103.202 125.022 103.15C124.871 103.172 124.717 103.192 124.554 103.206C121.808 103.286 119.018 103.162 116.362 104.003Z" fill="white"/>
</mask>
<g mask="url(#mask7_141_279)">
<path d="M116.362 104.003C113.497 104.923 111.309 106.14 108.518 107.102C111.728 106.455 114.706 105.068 117.884 104.306C120.1 103.727 121.94 103.732 124.396 103.31C124.603 103.264 124.887 103.202 125.022 103.15C124.871 103.172 124.717 103.192 124.554 103.206C121.808 103.286 119.018 103.162 116.362 104.003Z" fill="url(#paint7_linear_141_279)"/>
</g>
<mask id="mask8_141_279" style="mask-type:luminance" maskUnits="userSpaceOnUse" x="138" y="63" width="10" height="4">
<path d="M138.778 66.4132C141.697 65.7714 144.464 64.639 147.292 63.7418C144.343 64.1186 141.533 65.3151 138.778 66.4132Z" fill="white"/>
</mask>
<g mask="url(#mask8_141_279)">
<path d="M138.778 66.4132C141.697 65.7714 144.464 64.639 147.292 63.7418C144.343 64.1186 141.533 65.3151 138.778 66.4132Z" fill="url(#paint8_linear_141_279)"/>
</g>
<mask id="mask9_141_279" style="mask-type:luminance" maskUnits="userSpaceOnUse" x="153" y="52" width="25" height="9">
<path d="M166.405 54.7852C162.752 56.1061 157.835 58.2783 153.821 60.009C158.229 58.7772 162.602 57.3261 166.886 55.7108C169.763 54.5257 173.693 52.7998 177.116 52.1674C173.421 52.2466 169.819 53.4554 166.405 54.7852Z" fill="white"/>
</mask>
<g mask="url(#mask9_141_279)">
<path d="M166.405 54.7852C162.752 56.1061 157.835 58.2783 153.821 60.009C158.229 58.7772 162.602 57.3261 166.886 55.7108C169.763 54.5257 173.693 52.7998 177.116 52.1674C173.421 52.2466 169.819 53.4554 166.405 54.7852Z" fill="url(#paint9_linear_141_279)"/>
</g>
<mask id="mask10_141_279" style="mask-type:luminance" maskUnits="userSpaceOnUse" x="165" y="48" width="16" height="5">
<path d="M165.738 52.6071C170.756 51.4123 176.563 49.9489 180.995 48.2952C179.112 48.5185 177.265 49.0608 175.378 49.3489C172.056 50.0783 168.914 51.3954 165.738 52.6071Z" fill="white"/>
</mask>
<g mask="url(#mask10_141_279)">
<path d="M165.738 52.6071C170.756 51.4123 176.563 49.9489 180.995 48.2952C179.112 48.5185 177.265 49.0608 175.378 49.3489C172.056 50.0783 168.914 51.3954 165.738 52.6071Z" fill="url(#paint10_linear_141_279)"/>
</g>
<mask id="mask11_141_279" style="mask-type:luminance" maskUnits="userSpaceOnUse" x="161" y="54" width="19" height="7">
<path d="M174.267 56.0948C169.774 57.3592 165.307 58.7737 161.063 60.7315C165.799 59.3182 170.736 58.4149 175.273 56.4156C176.711 55.748 178.062 54.9042 179.466 54.4192C177.652 54.7007 175.985 55.4955 174.267 56.0948Z" fill="white"/>
</mask>
<g mask="url(#mask11_141_279)">
<path d="M174.267 56.0948C169.774 57.3592 165.307 58.7737 161.063 60.7315C165.799 59.3182 170.736 58.4149 175.273 56.4156C176.711 55.748 178.062 54.9042 179.466 54.4192C177.652 54.7007 175.985 55.4955 174.267 56.0948Z" fill="url(#paint11_linear_141_279)"/>
</g>
<mask id="mask12_141_279" style="mask-type:luminance" maskUnits="userSpaceOnUse" x="119" y="118" width="10" height="2">
<path d="M119.272 118.636C122.03 120.188 125.533 119.777 128.435 118.835C125.427 119.032 122.19 119.383 119.358 118.644C119.301 118.628 119.164 118.537 119.155 118.54C119.202 118.571 119.236 118.603 119.272 118.636Z" fill="white"/>
</mask>
<g mask="url(#mask12_141_279)">
<path d="M119.272 118.636C122.03 120.188 125.533 119.777 128.435 118.835C125.427 119.032 122.19 119.383 119.358 118.644C119.301 118.628 119.164 118.537 119.155 118.54C119.202 118.571 119.236 118.603 119.272 118.636Z" fill="url(#paint12_linear_141_279)"/>
</g>
<mask id="mask13_141_279" style="mask-type:luminance" maskUnits="userSpaceOnUse" x="114" y="122" width="11" height="2">
<path d="M124.602 123.221C121.329 122.746 118.013 122.847 114.729 123.023C117.983 123.627 121.315 123.513 124.602 123.221Z" fill="white"/>
</mask>
<g mask="url(#mask13_141_279)">
<path d="M124.602 123.221C121.329 122.746 118.013 122.847 114.729 123.023C117.983 123.627 121.315 123.513 124.602 123.221Z" fill="url(#paint13_linear_141_279)"/>
</g>
<mask id="mask14_141_279" style="mask-type:luminance" maskUnits="userSpaceOnUse" x="96" y="119" width="10" height="2">
<path d="M105.848 119.561C102.776 119.522 99.6768 119.73 96.6283 119.697C99.64 120.473 102.84 120.225 105.848 119.561Z" fill="white"/>
</mask>
<g mask="url(#mask14_141_279)">
<path d="M105.848 119.561C102.776 119.522 99.6768 119.73 96.6283 119.697C99.64 120.473 102.84 120.225 105.848 119.561Z" fill="url(#paint14_linear_141_279)"/>
</g>
<mask id="mask15_141_279" style="mask-type:luminance" maskUnits="userSpaceOnUse" x="139" y="133" width="12" height="13">
<path d="M149.244 134.518C147.75 135.996 146.697 137.816 145.446 139.492C144.036 141.23 141.5 143.834 139.301 145.398C141.99 144.141 144.479 142.259 146.286 139.901C147.517 138.074 148.412 136.048 149.695 134.261C149.828 134.056 150 133.802 150.095 133.652C149.81 133.948 149.52 134.236 149.244 134.518Z" fill="white"/>
</mask>
<g mask="url(#mask15_141_279)">
<path d="M149.244 134.518C147.75 135.996 146.697 137.816 145.446 139.492C144.036 141.23 141.5 143.834 139.301 145.398C141.99 144.141 144.479 142.259 146.286 139.901C147.517 138.074 148.412 136.048 149.695 134.261C149.828 134.056 150 133.802 150.095 133.652C149.81 133.948 149.52 134.236 149.244 134.518Z" fill="url(#paint15_linear_141_279)"/>
</g>
<mask id="mask16_141_279" style="mask-type:luminance" maskUnits="userSpaceOnUse" x="146" y="134" width="8" height="9">
<path d="M146.753 142.551C149.796 140.508 152.181 137.585 153.969 134.407C151.502 137.068 149.196 139.873 146.753 142.551Z" fill="white"/>
</mask>
<g mask="url(#mask16_141_279)">
<path d="M146.753 142.551C149.796 140.508 152.181 137.585 153.969 134.407C151.502 137.068 149.196 139.873 146.753 142.551Z" fill="url(#paint16_linear_141_279)"/>
</g>
<mask id="mask17_141_279" style="mask-type:luminance" maskUnits="userSpaceOnUse" x="156" y="101" width="5" height="18">
<path d="M159.712 102.554C159.161 104.229 159.731 106.026 159.571 107.75C159.155 111.09 157.52 115.21 156.445 118.819C158.286 115.16 160.639 111.255 160.431 107.028C160.353 105.587 159.71 103.943 159.943 102.627C159.999 102.216 160.116 101.766 160.204 101.387C160.023 101.76 159.846 102.153 159.712 102.554Z" fill="white"/>
</mask>
<g mask="url(#mask17_141_279)">
<path d="M159.712 102.554C159.161 104.229 159.731 106.026 159.571 107.75C159.155 111.09 157.52 115.21 156.445 118.819C158.286 115.16 160.639 111.255 160.431 107.028C160.353 105.587 159.71 103.943 159.943 102.627C159.999 102.216 160.116 101.766 160.204 101.387C160.023 101.76 159.846 102.153 159.712 102.554Z" fill="url(#paint17_linear_141_279)"/>
</g>
<mask id="mask18_141_279" style="mask-type:luminance" maskUnits="userSpaceOnUse" x="153" y="109" width="2" height="6">
<path d="M153.3 114.628C153.873 113.022 154.172 111.304 154.25 109.619C153.713 111.32 153.436 112.921 153.3 114.628Z" fill="white"/>
</mask>
<g mask="url(#mask18_141_279)">
<path d="M153.3 114.628C153.873 113.022 154.172 111.304 154.25 109.619C153.713 111.32 153.436 112.921 153.3 114.628Z" fill="url(#paint18_linear_141_279)"/>
</g>
<mask id="mask19_141_279" style="mask-type:luminance" maskUnits="userSpaceOnUse" x="162" y="94" width="3" height="38">
<path d="M163.248 95.6927C162.931 96.7924 162.605 97.9046 162.517 99.0472C162.424 100.145 162.721 101.476 162.808 102.216C163.01 104.447 162.969 106.696 163.085 108.94C163.396 112.876 162.754 116.777 162.708 120.708C162.831 124.3 163.265 127.88 163.695 131.451C163.765 127.483 163.59 123.509 163.903 119.563C164.318 115.761 164.788 111.959 164.344 108.141C164.123 105.984 164.05 103.802 163.573 101.695C162.95 99.7729 162.96 97.9854 163.308 96.0544C163.359 95.7167 163.414 95.2095 163.388 94.9548C163.359 95.2063 163.311 95.4482 163.248 95.6927Z" fill="white"/>
</mask>
<g mask="url(#mask19_141_279)">
<path d="M163.248 95.6927C162.931 96.7924 162.605 97.9046 162.517 99.0472C162.424 100.145 162.721 101.476 162.808 102.216C163.01 104.447 162.969 106.696 163.085 108.94C163.396 112.876 162.754 116.777 162.708 120.708C162.831 124.3 163.265 127.88 163.695 131.451C163.765 127.483 163.59 123.509 163.903 119.563C164.318 115.761 164.788 111.959 164.344 108.141C164.123 105.984 164.05 103.802 163.573 101.695C162.95 99.7729 162.96 97.9854 163.308 96.0544C163.359 95.7167 163.414 95.2095 163.388 94.9548C163.359 95.2063 163.311 95.4482 163.248 95.6927Z" fill="url(#paint19_linear_141_279)"/>
</g>
<mask id="mask20_141_279" style="mask-type:luminance" maskUnits="userSpaceOnUse" x="166" y="92" width="4" height="26">
<path d="M167.184 93.198C164.572 101.295 167.087 109.798 169.215 117.716C168.632 112.617 167.718 108.188 167.372 103.226C166.823 100.104 166.789 96.9478 167.264 93.5298C167.285 93.2624 167.327 92.7195 167.269 92.619C167.27 92.8182 167.225 93.0072 167.184 93.198Z" fill="white"/>
</mask>
<g mask="url(#mask20_141_279)">
<path d="M167.184 93.198C164.572 101.295 167.087 109.798 169.215 117.716C168.632 112.617 167.718 108.188 167.372 103.226C166.823 100.104 166.789 96.9478 167.264 93.5298C167.285 93.2624 167.327 92.7195 167.269 92.619C167.27 92.8182 167.225 93.0072 167.184 93.198Z" fill="url(#paint20_linear_141_279)"/>
</g>
<mask id="mask21_141_279" style="mask-type:luminance" maskUnits="userSpaceOnUse" x="185" y="99" width="5" height="25">
<path d="M185.409 99.8036C185.756 103.029 187.003 106.07 187.628 109.241C188.367 113.4 188.255 118.377 188.6 123.058C189.083 117.498 190.058 111.626 187.936 106.276C187.065 103.898 186.255 102.289 185.494 99.707C185.44 99.5352 185.39 99.3507 185.332 99.1767C185.359 99.3884 185.383 99.6029 185.409 99.8036Z" fill="white"/>
</mask>
<g mask="url(#mask21_141_279)">
<path d="M185.409 99.8036C185.756 103.029 187.003 106.07 187.628 109.241C188.367 113.4 188.255 118.377 188.6 123.058C189.083 117.498 190.058 111.626 187.936 106.276C187.065 103.898 186.255 102.289 185.494 99.707C185.44 99.5352 185.39 99.3507 185.332 99.1767C185.359 99.3884 185.383 99.6029 185.409 99.8036Z" fill="url(#paint21_linear_141_279)"/>
</g>
<mask id="mask22_141_279" style="mask-type:luminance" maskUnits="userSpaceOnUse" x="186" y="81" width="6" height="23">
<path d="M187.345 84.1761C187.706 85.4364 188.404 87.7135 188.469 88.5008C188.622 93.67 189.522 98.9124 191.892 103.555C190.765 99.84 190.332 96.456 189.965 93.121C189.726 91.2634 189.795 89.3552 189.274 87.5392C188.959 86.4136 188.34 85.1607 188.008 84.3538C187.582 83.4234 187.016 81.7159 186.444 81.0361C186.889 82.0217 187.043 83.1303 187.345 84.1761Z" fill="white"/>
</mask>
<g mask="url(#mask22_141_279)">
<path d="M187.345 84.1761C187.706 85.4364 188.404 87.7135 188.469 88.5008C188.622 93.67 189.522 98.9124 191.892 103.555C190.765 99.84 190.332 96.456 189.965 93.121C189.726 91.2634 189.795 89.3552 189.274 87.5392C188.959 86.4136 188.34 85.1607 188.008 84.3538C187.582 83.4234 187.016 81.7159 186.444 81.0361C186.889 82.0217 187.043 83.1303 187.345 84.1761Z" fill="url(#paint22_linear_141_279)"/>
</g>
<mask id="mask23_141_279" style="mask-type:luminance" maskUnits="userSpaceOnUse" x="183" y="59" width="3" height="12">
<path d="M183.437 70.9631C184.415 67.0741 185.267 63.0407 185.317 59.039C184.331 62.9285 183.484 66.9162 183.437 70.9631Z" fill="white"/>
</mask>
<g mask="url(#mask23_141_279)">
<path d="M183.437 70.9631C184.415 67.0741 185.267 63.0407 185.317 59.039C184.331 62.9285 183.484 66.9162 183.437 70.9631Z" fill="url(#paint23_linear_141_279)"/>
</g>
<mask id="mask24_141_279" style="mask-type:luminance" maskUnits="userSpaceOnUse" x="187" y="51" width="5" height="19">
<path d="M188.067 56.9315C188.193 57.7548 188.634 58.493 188.849 59.2906C189.816 62.7171 190.623 66.1753 191.62 69.5906C191.259 65.8582 190.944 62.0234 189.585 58.4965C188.478 56.4771 188.323 54.3973 188.147 51.9285C187.91 53.2555 187.8 55.3644 188.067 56.9315Z" fill="white"/>
</mask>
<g mask="url(#mask24_141_279)">
<path d="M188.067 56.9315C188.193 57.7548 188.634 58.493 188.849 59.2906C189.816 62.7171 190.623 66.1753 191.62 69.5906C191.259 65.8582 190.944 62.0234 189.585 58.4965C188.478 56.4771 188.323 54.3973 188.147 51.9285C187.91 53.2555 187.8 55.3644 188.067 56.9315Z" fill="url(#paint24_linear_141_279)"/>
</g>
<mask id="mask25_141_279" style="mask-type:luminance" maskUnits="userSpaceOnUse" x="194" y="69" width="8" height="16">
<path d="M201.422 84.2227C200.022 79.2214 198.579 73.373 194.909 69.7578C197.662 74.1961 198.825 79.4707 201.422 84.2227Z" fill="white"/>
</mask>
<g mask="url(#mask25_141_279)">
<path d="M201.422 84.2227C200.022 79.2214 198.579 73.373 194.909 69.7578C197.662 74.1961 198.825 79.4707 201.422 84.2227Z" fill="url(#paint25_linear_141_279)"/>
</g>
<mask id="mask26_141_279" style="mask-type:luminance" maskUnits="userSpaceOnUse" x="195" y="39" width="3" height="15">
<path d="M195.293 39.8454C196.151 42.6667 196.443 48.7486 197.511 53.0135C197.487 48.4672 197.349 43.7732 195.371 39.5873C195.247 39.3999 195.285 39.8804 195.293 39.8454Z" fill="white"/>
</mask>
<g mask="url(#mask26_141_279)">
<path d="M195.293 39.8454C196.151 42.6667 196.443 48.7486 197.511 53.0135C197.487 48.4672 197.349 43.7732 195.371 39.5873C195.247 39.3999 195.285 39.8804 195.293 39.8454Z" fill="url(#paint26_linear_141_279)"/>
</g>
<mask id="mask27_141_279" style="mask-type:luminance" maskUnits="userSpaceOnUse" x="195" y="37" width="6" height="19">
<path d="M196.879 43.2042C198.052 47.3963 200.241 51.2883 200.91 55.6296C201.137 51.2035 199.104 46.4124 197.732 43.1509C197.08 41.3913 196.669 39.4786 195.508 37.9629C196.312 39.5944 196.448 41.449 196.879 43.2042Z" fill="white"/>
</mask>
<g mask="url(#mask27_141_279)">
<path d="M196.879 43.2042C198.052 47.3963 200.241 51.2883 200.91 55.6296C201.137 51.2035 199.104 46.4124 197.732 43.1509C197.08 41.3913 196.669 39.4786 195.508 37.9629C196.312 39.5944 196.448 41.449 196.879 43.2042Z" fill="url(#paint27_linear_141_279)"/>
</g>
<mask id="mask28_141_279" style="mask-type:luminance" maskUnits="userSpaceOnUse" x="191" y="36" width="4" height="17">
<path d="M193.519 42.4094C192.948 45.6322 192.533 48.8966 191.56 52.0318C194.008 47.3601 195.234 41.2987 194.054 36.3332C194.129 38.6701 193.895 40.2074 193.519 42.4094Z" fill="white"/>
</mask>
<g mask="url(#mask28_141_279)">
<path d="M193.519 42.4094C192.948 45.6322 192.533 48.8966 191.56 52.0318C194.008 47.3601 195.234 41.2987 194.054 36.3332C194.129 38.6701 193.895 40.2074 193.519 42.4094Z" fill="url(#paint28_linear_141_279)"/>
</g>
<mask id="mask29_141_279" style="mask-type:luminance" maskUnits="userSpaceOnUse" x="175" y="30" width="16" height="14">
<path d="M189.775 30.9576C188.465 31.9884 187.755 32.7655 186.5 33.5653C182.337 36.339 178.753 39.8628 175.39 43.5381C178.881 40.8719 181.986 38.4474 185.386 35.4806C187.044 34.1565 188.549 32.6968 189.867 31.0375C190.014 30.8735 190.265 30.647 190.326 30.5685C190.141 30.6888 189.957 30.8266 189.775 30.9576Z" fill="white"/>
</mask>
<g mask="url(#mask29_141_279)">
<path d="M189.775 30.9576C188.465 31.9884 187.755 32.7655 186.5 33.5653C182.337 36.339 178.753 39.8628 175.39 43.5381C178.881 40.8719 181.986 38.4474 185.386 35.4806C187.044 34.1565 188.549 32.6968 189.867 31.0375C190.014 30.8735 190.265 30.647 190.326 30.5685C190.141 30.6888 189.957 30.8266 189.775 30.9576Z" fill="url(#paint29_linear_141_279)"/>
</g>
<defs>
<linearGradient id="paint0_linear_141_279" x1="-106.591" y1="-14.8751" x2="350.483" y2="151.366" gradientUnits="userSpaceOnUse">
<stop stop-color="#E4C26D"/>
<stop offset="0.227907" stop-color="#BB9535"/>
<stop offset="0.413953" stop-color="#E5C15E"/>
<stop offset="0.586047" stop-color="#97691E"/>
<stop offset="1" stop-color="#E2C67A"/>
</linearGradient>
<linearGradient id="paint1_linear_141_279" x1="-127.133" y1="41.5535" x2="329.968" y2="207.804" gradientUnits="userSpaceOnUse">
<stop stop-color="#E4C26D"/>
<stop offset="0.227907" stop-color="#BB9535"/>
<stop offset="0.413953" stop-color="#E5C15E"/>
<stop offset="0.586047" stop-color="#97691E"/>
<stop offset="1" stop-color="#E2C67A"/>
</linearGradient>
<linearGradient id="paint2_linear_141_279" x1="-109.571" y1="-6.67328" x2="347.504" y2="159.568" gradientUnits="userSpaceOnUse">
<stop stop-color="#E4C26D"/>
<stop offset="0.227907" stop-color="#BB9535"/>
<stop offset="0.413953" stop-color="#E5C15E"/>
<stop offset="0.586047" stop-color="#97691E"/>
<stop offset="1" stop-color="#E2C67A"/>
</linearGradient>
<linearGradient id="paint3_linear_141_279" x1="-97.3213" y1="-40.3797" x2="359.768" y2="125.866" gradientUnits="userSpaceOnUse">
<stop stop-color="#E4C26D"/>
<stop offset="0.227907" stop-color="#BB9535"/>
<stop offset="0.413953" stop-color="#E5C15E"/>
<stop offset="0.586047" stop-color="#97691E"/>
<stop offset="1" stop-color="#E2C67A"/>
</linearGradient>
<linearGradient id="paint4_linear_141_279" x1="-112.377" y1="1.01153" x2="344.71" y2="167.26" gradientUnits="userSpaceOnUse">
<stop stop-color="#E4C26D"/>
<stop offset="0.227907" stop-color="#BB9535"/>
<stop offset="0.413953" stop-color="#E5C15E"/>
<stop offset="0.586047" stop-color="#97691E"/>
<stop offset="1" stop-color="#E2C67A"/>
</linearGradient>
<linearGradient id="paint5_linear_141_279" x1="59.2409" y1="72.0052" x2="202.557" y2="124.13" gradientUnits="userSpaceOnUse">
<stop stop-color="#E4C26D"/>
<stop offset="0.227907" stop-color="#BB9535"/>
<stop offset="0.413953" stop-color="#E5C15E"/>
<stop offset="0.586047" stop-color="#97691E"/>
<stop offset="1" stop-color="#E2C67A"/>
</linearGradient>
<linearGradient id="paint6_linear_141_279" x1="-116.88" y1="13.4324" x2="340.182" y2="179.671" gradientUnits="userSpaceOnUse">
<stop stop-color="#E4C26D"/>
<stop offset="0.227907" stop-color="#BB9535"/>
<stop offset="0.413953" stop-color="#E5C15E"/>
<stop offset="0.586047" stop-color="#97691E"/>
<stop offset="1" stop-color="#E2C67A"/>
</linearGradient>
<linearGradient id="paint7_linear_141_279" x1="-119.043" y1="19.359" x2="338.037" y2="185.599" gradientUnits="userSpaceOnUse">
<stop stop-color="#E4C26D"/>
<stop offset="0.227907" stop-color="#BB9535"/>
<stop offset="0.413953" stop-color="#E5C15E"/>
<stop offset="0.586047" stop-color="#97691E"/>
<stop offset="1" stop-color="#E2C67A"/>
</linearGradient>
<linearGradient id="paint8_linear_141_279" x1="-103.138" y1="-24.4577" x2="353.991" y2="141.801" gradientUnits="userSpaceOnUse">
<stop stop-color="#E4C26D"/>
<stop offset="0.227907" stop-color="#BB9535"/>
<stop offset="0.413953" stop-color="#E5C15E"/>
<stop offset="0.586047" stop-color="#97691E"/>
<stop offset="1" stop-color="#E2C67A"/>
</linearGradient>
<linearGradient id="paint9_linear_141_279" x1="-97.6151" y1="-39.5967" x2="359.479" y2="126.653" gradientUnits="userSpaceOnUse">
<stop stop-color="#E4C26D"/>
<stop offset="0.227907" stop-color="#BB9535"/>
<stop offset="0.413953" stop-color="#E5C15E"/>
<stop offset="0.586047" stop-color="#97691E"/>
<stop offset="1" stop-color="#E2C67A"/>
</linearGradient>
<linearGradient id="paint10_linear_141_279" x1="-94.8674" y1="-47.1095" x2="362.213" y2="119.131" gradientUnits="userSpaceOnUse">
<stop stop-color="#E4C26D"/>
<stop offset="0.227907" stop-color="#BB9535"/>
<stop offset="0.413953" stop-color="#E5C15E"/>
<stop offset="0.586047" stop-color="#97691E"/>
<stop offset="1" stop-color="#E2C67A"/>
</linearGradient>
<linearGradient id="paint11_linear_141_279" x1="-97.5053" y1="-39.8131" x2="359.549" y2="126.42" gradientUnits="userSpaceOnUse">
<stop stop-color="#E4C26D"/>
<stop offset="0.227907" stop-color="#BB9535"/>
<stop offset="0.413953" stop-color="#E5C15E"/>
<stop offset="0.586047" stop-color="#97691E"/>
<stop offset="1" stop-color="#E2C67A"/>
</linearGradient>
<linearGradient id="paint12_linear_141_279" x1="-122.607" y1="29.1508" x2="334.47" y2="195.394" gradientUnits="userSpaceOnUse">
<stop stop-color="#E4C26D"/>
<stop offset="0.227907" stop-color="#BB9535"/>
<stop offset="0.413953" stop-color="#E5C15E"/>
<stop offset="0.586047" stop-color="#97691E"/>
<stop offset="1" stop-color="#E2C67A"/>
</linearGradient>
<linearGradient id="paint13_linear_141_279" x1="-124.485" y1="34.3213" x2="332.594" y2="200.563" gradientUnits="userSpaceOnUse">
<stop stop-color="#E4C26D"/>
<stop offset="0.227907" stop-color="#BB9535"/>
<stop offset="0.413953" stop-color="#E5C15E"/>
<stop offset="0.586047" stop-color="#97691E"/>
<stop offset="1" stop-color="#E2C67A"/>
</linearGradient>
<linearGradient id="paint14_linear_141_279" x1="-125.517" y1="37.1557" x2="331.564" y2="203.397" gradientUnits="userSpaceOnUse">
<stop stop-color="#E4C26D"/>
<stop offset="0.227907" stop-color="#BB9535"/>
<stop offset="0.413953" stop-color="#E5C15E"/>
<stop offset="0.586047" stop-color="#97691E"/>
<stop offset="1" stop-color="#E2C67A"/>
</linearGradient>
<linearGradient id="paint15_linear_141_279" x1="-126.866" y1="40.7551" x2="330.269" y2="207.018" gradientUnits="userSpaceOnUse">
<stop stop-color="#E4C26D"/>
<stop offset="0.227907" stop-color="#BB9535"/>
<stop offset="0.413953" stop-color="#E5C15E"/>
<stop offset="0.586047" stop-color="#97691E"/>
<stop offset="1" stop-color="#E2C67A"/>
</linearGradient>
<linearGradient id="paint16_linear_141_279" x1="-125.782" y1="38.0433" x2="331.208" y2="204.253" gradientUnits="userSpaceOnUse">
<stop stop-color="#E4C26D"/>
<stop offset="0.227907" stop-color="#BB9535"/>
<stop offset="0.413953" stop-color="#E5C15E"/>
<stop offset="0.586047" stop-color="#97691E"/>
<stop offset="1" stop-color="#E2C67A"/>
</linearGradient>
<linearGradient id="paint17_linear_141_279" x1="-115.787" y1="10.4061" x2="341.291" y2="176.648" gradientUnits="userSpaceOnUse">
<stop stop-color="#E4C26D"/>
<stop offset="0.227907" stop-color="#BB9535"/>
<stop offset="0.413953" stop-color="#E5C15E"/>
<stop offset="0.586047" stop-color="#97691E"/>
<stop offset="1" stop-color="#E2C67A"/>
</linearGradient>
<linearGradient id="paint18_linear_141_279" x1="-117.225" y1="13.5603" x2="340.284" y2="179.961" gradientUnits="userSpaceOnUse">
<stop stop-color="#E4C26D"/>
<stop offset="0.227907" stop-color="#BB9535"/>
<stop offset="0.413953" stop-color="#E5C15E"/>
<stop offset="0.586047" stop-color="#97691E"/>
<stop offset="1" stop-color="#E2C67A"/>
</linearGradient>
<linearGradient id="paint19_linear_141_279" x1="-116.173" y1="11.4672" x2="340.905" y2="177.709" gradientUnits="userSpaceOnUse">
<stop stop-color="#E4C26D"/>
<stop offset="0.227907" stop-color="#BB9535"/>
<stop offset="0.413953" stop-color="#E5C15E"/>
<stop offset="0.586047" stop-color="#97691E"/>
<stop offset="1" stop-color="#E2C67A"/>
</linearGradient>
<linearGradient id="paint20_linear_141_279" x1="-113.045" y1="2.86103" x2="344.034" y2="169.103" gradientUnits="userSpaceOnUse">
<stop stop-color="#E4C26D"/>
<stop offset="0.227907" stop-color="#BB9535"/>
<stop offset="0.413953" stop-color="#E5C15E"/>
<stop offset="0.586047" stop-color="#97691E"/>
<stop offset="1" stop-color="#E2C67A"/>
</linearGradient>
<linearGradient id="paint21_linear_141_279" x1="-112.765" y1="2.10221" x2="344.313" y2="168.344" gradientUnits="userSpaceOnUse">
<stop stop-color="#E4C26D"/>
<stop offset="0.227907" stop-color="#BB9535"/>
<stop offset="0.413953" stop-color="#E5C15E"/>
<stop offset="0.586047" stop-color="#97691E"/>
<stop offset="1" stop-color="#E2C67A"/>
</linearGradient>
<linearGradient id="paint22_linear_141_279" x1="-106.465" y1="-15.2281" x2="350.614" y2="151.014" gradientUnits="userSpaceOnUse">
<stop stop-color="#E4C26D"/>
<stop offset="0.227907" stop-color="#BB9535"/>
<stop offset="0.413953" stop-color="#E5C15E"/>
<stop offset="0.586047" stop-color="#97691E"/>
<stop offset="1" stop-color="#E2C67A"/>
</linearGradient>
<linearGradient id="paint23_linear_141_279" x1="-98.3485" y1="-37.8276" x2="358.882" y2="128.469" gradientUnits="userSpaceOnUse">
<stop stop-color="#E4C26D"/>
<stop offset="0.227907" stop-color="#BB9535"/>
<stop offset="0.413953" stop-color="#E5C15E"/>
<stop offset="0.586047" stop-color="#97691E"/>
<stop offset="1" stop-color="#E2C67A"/>
</linearGradient>
<linearGradient id="paint24_linear_141_279" x1="-96.25" y1="-43.3089" x2="360.828" y2="122.933" gradientUnits="userSpaceOnUse">
<stop stop-color="#E4C26D"/>
<stop offset="0.227907" stop-color="#BB9535"/>
<stop offset="0.413953" stop-color="#E5C15E"/>
<stop offset="0.586047" stop-color="#97691E"/>
<stop offset="1" stop-color="#E2C67A"/>
</linearGradient>
<linearGradient id="paint25_linear_141_279" x1="-100.497" y1="-31.6367" x2="356.581" y2="134.604" gradientUnits="userSpaceOnUse">
<stop stop-color="#E4C26D"/>
<stop offset="0.227907" stop-color="#BB9535"/>
<stop offset="0.413953" stop-color="#E5C15E"/>
<stop offset="0.586047" stop-color="#97691E"/>
<stop offset="1" stop-color="#E2C67A"/>
</linearGradient>
<linearGradient id="paint26_linear_141_279" x1="-90.7974" y1="-58.1856" x2="366.227" y2="108.036" gradientUnits="userSpaceOnUse">
<stop stop-color="#E4C26D"/>
<stop offset="0.227907" stop-color="#BB9535"/>
<stop offset="0.413953" stop-color="#E5C15E"/>
<stop offset="0.586047" stop-color="#97691E"/>
<stop offset="1" stop-color="#E2C67A"/>
</linearGradient>
<linearGradient id="paint27_linear_141_279" x1="-90.8166" y1="-58.3239" x2="366.294" y2="107.93" gradientUnits="userSpaceOnUse">
<stop stop-color="#E4C26D"/>
<stop offset="0.227907" stop-color="#BB9535"/>
<stop offset="0.413953" stop-color="#E5C15E"/>
<stop offset="0.586047" stop-color="#97691E"/>
<stop offset="1" stop-color="#E2C67A"/>
</linearGradient>
<linearGradient id="paint28_linear_141_279" x1="-90.5855" y1="-58.8895" x2="366.492" y2="107.353" gradientUnits="userSpaceOnUse">
<stop stop-color="#E4C26D"/>
<stop offset="0.227907" stop-color="#BB9535"/>
<stop offset="0.413953" stop-color="#E5C15E"/>
<stop offset="0.586047" stop-color="#97691E"/>
<stop offset="1" stop-color="#E2C67A"/>
</linearGradient>
<linearGradient id="paint29_linear_141_279" x1="-89.4355" y1="-61.9823" x2="367.607" y2="104.246" gradientUnits="userSpaceOnUse">
<stop stop-color="#E4C26D"/>
<stop offset="0.227907" stop-color="#BB9535"/>
<stop offset="0.413953" stop-color="#E5C15E"/>
<stop offset="0.586047" stop-color="#97691E"/>
<stop offset="1" stop-color="#E2C67A"/>
</linearGradient>
</defs>
</svg>
