<svg width="70" height="70" viewBox="0 0 70 70" fill="none" xmlns="http://www.w3.org/2000/svg">
<circle cx="35" cy="35" r="28.5" stroke="#002856" stroke-width="3"/>
<path d="M47.4713 50.4058V48.0344C47.4713 48.0344 46.6643 46.4686 46.9195 45.4805C47.2874 44.5684 48.6735 44.3224 49.4943 43.2915C50.2509 42.3411 50.2998 41.5705 50.9655 40.5553C51.7178 39.4081 52.5446 39.0375 53.1724 37.819C53.7516 36.6949 54.092 34.7179 54.092 34.7179L55.3793 29.975L57.4023 26.6915L59.7931 21.219L62 15.1992L56.6667 18.1179L50.9655 21.219C50.9655 21.219 47.4177 23.6229 45.8161 25.7794C44.4842 27.5727 43.2414 30.8871 43.2414 30.8871C43.0523 32.0672 40.853 36.9515 38.8276 37.2717C35.6 35.5992 35.8566 35.8148 34.046 34.7179C32.7204 33.9149 31.9123 33.5376 30.7356 32.5289C29.6984 31.6397 29.1994 31.041 28.3448 29.975C27.2793 28.646 25.954 26.3267 25.954 26.3267L23.7471 23.5904C23.7471 23.5904 22.7553 22.2257 21.908 21.5838C21.1921 21.0414 19.8851 20.4893 19.8851 20.4893C19.8851 20.4893 20.7335 23.0087 21.908 24.1377C22.5384 24.7436 23.1019 24.8245 23.7471 25.4146C24.8872 26.4573 25.954 28.6981 25.954 28.6981C27.2744 31.1998 28.018 32.3919 29.2644 33.9882C29.2644 33.9882 32.6 36.7992 33.1264 40.5553C33.1542 40.9818 33.1904 41.2271 33.1264 41.6498C32.3908 43.2915 28.8966 44.7509 28.8966 44.7509C28.8966 44.7509 28.5287 44.9333 22.4598 48.0344C16.3908 51.1355 14 60.8036 14 60.8036C14 60.8036 21.7362 58.851 23.7471 58.0674C25.7581 57.2837 26.8856 56.8444 28.8966 56.0608C30.9075 55.2771 33.9411 55.9352 36.6207 54.419C38.7826 53.1957 40.4828 50.5882 41.2184 50.041C41.8881 49.9164 42.5769 49.8677 43.2414 49.8664M47.4713 50.4058C47.4713 50.4058 45.4963 49.8619 43.2414 49.8664M47.4713 50.4058V50.7706L58.6897 64.9992C58.6897 64.9992 57.4358 64.6069 56.6667 64.2695C53.5025 62.8815 49.8621 58.6146 49.8621 58.6146L44.1609 53.1421L43.2414 49.8664" stroke="#002856"/>
</svg>
