<svg width="70" height="70" viewBox="0 0 70 70" fill="none" xmlns="http://www.w3.org/2000/svg">
<path d="M34.2452 25.4003L35.1194 27.0654L36.0111 25.4096C38.5591 20.6777 41.6046 17.8194 44.6729 16.3783C47.7336 14.9408 50.8864 14.8791 53.7444 15.8567C59.4796 17.8186 64.1213 24.0211 64.1306 31.9126C63.893 36.7502 61.5066 40.2612 56.6019 44.4913C54.137 46.6171 51.0754 48.891 47.3835 51.5897C46.8888 51.9513 46.383 52.3204 45.8663 52.6974C42.6994 55.0083 39.1203 57.6199 35.1384 60.6698C30.8481 57.3 27.0765 54.5177 23.7976 52.0989C23.631 51.9759 23.4656 51.8539 23.3015 51.7328C19.7473 49.1103 16.81 46.9298 14.4059 44.8647C9.64277 40.7733 7.06968 37.219 6.12027 31.7906C5.19029 24.0285 9.77432 17.7308 15.7642 15.6955C18.7536 14.6798 22.0997 14.7223 25.3188 16.1828C28.5397 17.644 31.7027 20.5578 34.2452 25.4003Z" stroke="#002856" stroke-width="2"/>
<path d="M48.16 43.9254L49.0342 45.5904L49.9258 43.9346C51.1596 41.6434 52.6093 40.3048 54.023 39.6408C55.4292 38.9804 56.8688 38.9531 58.1779 39.4009C60.8153 40.3031 63.0161 43.1888 63.0254 46.9324C62.9132 49.1419 61.8406 50.7757 59.4398 52.8463C58.2266 53.8926 56.7139 55.0166 54.8682 56.3657C54.6216 56.546 54.3694 56.73 54.1116 56.9182C52.6122 58.0122 50.9234 59.2446 49.053 60.6709C47.0305 59.0904 45.2435 57.772 43.6846 56.622C43.601 56.5604 43.5181 56.4992 43.4359 56.4386C41.6576 55.1264 40.2067 54.0489 39.023 53.0321C36.7009 51.0375 35.504 49.3604 35.0549 46.8106C34.626 43.1793 36.7692 40.2609 39.5361 39.3207C40.9139 38.8526 42.4529 38.8716 43.9391 39.5459C45.4272 40.221 46.9317 41.586 48.16 43.9254Z" fill="#D0C493" stroke="#002856" stroke-width="2"/>
</svg>
