<svg width="20" height="21" viewBox="0 0 20 21" fill="none" xmlns="http://www.w3.org/2000/svg">
<path d="M18.3345 14.8502V17.3502C18.3355 17.5822 18.2879 17.812 18.195 18.0246C18.102 18.2373 17.9656 18.4282 17.7946 18.585C17.6236 18.7419 17.4217 18.8614 17.2018 18.9358C16.982 19.0101 16.749 19.0377 16.5179 19.0168C13.9536 18.7382 11.4904 17.8619 9.32621 16.4585C7.31273 15.179 5.60565 13.472 4.32621 11.4585C2.91785 9.2845 2.04141 6.80932 1.76787 4.2335C1.74705 4.00305 1.77443 3.7708 1.84829 3.55152C1.92214 3.33224 2.04085 3.13074 2.19684 2.95985C2.35284 2.78896 2.54271 2.65242 2.75436 2.55893C2.96602 2.46544 3.19482 2.41705 3.42621 2.41683H5.92621C6.33063 2.41285 6.7227 2.55606 7.02934 2.81977C7.33598 3.08348 7.53627 3.4497 7.59287 3.85016C7.69839 4.65022 7.89408 5.43577 8.17621 6.19183C8.28833 6.4901 8.31259 6.81426 8.24613 7.1259C8.17966 7.43753 8.02526 7.72359 7.80121 7.95016L6.74287 9.0085C7.92917 11.0948 9.65658 12.8222 11.7429 14.0085L12.8012 12.9502C13.0278 12.7261 13.3138 12.5717 13.6255 12.5052C13.9371 12.4388 14.2613 12.463 14.5595 12.5752C15.3156 12.8573 16.1012 13.053 16.9012 13.1585C17.306 13.2156 17.6757 13.4195 17.94 13.7314C18.2043 14.0433 18.3447 14.4415 18.3345 14.8502Z" stroke="#002856" stroke-linecap="round" stroke-linejoin="round"/>
</svg>
