<svg width="36" height="36" viewBox="0 0 36 36" fill="none" xmlns="http://www.w3.org/2000/svg">
<path d="M32.9459 4.10866C32.8489 4.0248 32.7307 3.96908 32.6043 3.94751C32.4779 3.92595 32.348 3.93937 32.2287 3.98631L3.72963 15.1393C3.4391 15.2521 3.19311 15.4562 3.02872 15.721C2.86433 15.9857 2.79045 16.2967 2.81822 16.6071C2.84599 16.9176 2.97391 17.2105 3.18268 17.4419C3.39146 17.6733 3.66979 17.8305 3.97572 17.8899L11.8142 19.4283V28.1246C11.8141 28.461 11.9146 28.7898 12.1028 29.0687C12.291 29.3476 12.5582 29.5639 12.8703 29.6898C13.071 29.7703 13.2853 29.8118 13.5017 29.8121C13.7281 29.8116 13.9521 29.7655 14.1604 29.6766C14.3686 29.5877 14.5568 29.4578 14.7138 29.2946L18.6513 25.2165L24.6982 30.5194C25.0048 30.7898 25.399 30.9397 25.8078 30.9413C25.9863 30.9406 26.1636 30.9126 26.3337 30.8583C26.6121 30.7702 26.8625 30.6106 27.0599 30.3954C27.2573 30.1802 27.3948 29.917 27.4587 29.6321L33.1709 4.79772C33.1995 4.67326 33.1937 4.54336 33.154 4.42196C33.1144 4.30056 33.0424 4.19225 32.9459 4.10866ZM3.93916 16.5062C3.93091 16.4381 3.94623 16.3693 3.98257 16.3112C4.01891 16.2532 4.07407 16.2093 4.13885 16.1869L28.699 6.57522L12.2459 18.3666L4.19369 16.786C4.12544 16.776 4.06277 16.7426 4.01635 16.6916C3.96994 16.6406 3.94266 16.575 3.93916 16.5062ZM13.9053 28.5127C13.8275 28.5928 13.7276 28.648 13.6184 28.6712C13.5092 28.6943 13.3956 28.6845 13.292 28.6429C13.1884 28.6013 13.0995 28.5297 13.0367 28.4374C12.9738 28.3451 12.9399 28.2362 12.9392 28.1246V20.2074L17.802 24.4683L13.9053 28.5127ZM26.3618 29.3762C26.3401 29.4717 26.2937 29.5598 26.2275 29.6319C26.1612 29.704 26.0772 29.7576 25.9839 29.7872C25.8906 29.8169 25.7911 29.8217 25.6953 29.8012C25.5996 29.7806 25.5108 29.7354 25.4379 29.6701L13.2809 19.0093L31.8012 5.73709L26.3618 29.3762Z" fill="#002856"/>
</svg>
