<svg width="36" height="36" viewBox="0 0 36 36" fill="none" xmlns="http://www.w3.org/2000/svg">
<path d="M23.0625 20.8005C22.4024 20.0914 21.612 19.5159 20.7345 19.1055C21.9824 18.3365 23.0648 17.3268 23.9185 16.1352C24.7722 14.9436 25.3802 13.594 25.707 12.165C25.7322 12.0677 25.7375 11.9664 25.7228 11.867C25.708 11.7677 25.6735 11.6723 25.6211 11.5865C25.5688 11.5008 25.4998 11.4264 25.4182 11.3678C25.3365 11.3092 25.244 11.2677 25.146 11.2455C25.048 11.2234 24.9465 11.2212 24.8477 11.2391C24.7488 11.2569 24.6545 11.2945 24.5705 11.3494C24.4864 11.4044 24.4142 11.4757 24.3582 11.5591C24.3022 11.6425 24.2635 11.7364 24.2445 11.835C23.9114 13.2981 23.238 14.6621 22.2789 15.8162C21.3197 16.9702 20.102 17.8818 18.7245 18.477C18.561 18.45 18.3945 18.4425 18.231 18.426V12.003C18.2268 11.937 18.2137 11.8719 18.192 11.8095C18.1875 11.7771 18.181 11.7451 18.1725 11.7135C18.1377 11.6343 18.0895 11.5617 18.03 11.499C18.0225 11.4915 18.0195 11.481 18.0135 11.475C17.9598 11.4255 17.8992 11.384 17.8335 11.352C17.8125 11.34 17.796 11.322 17.775 11.313C17.7247 11.2972 17.6729 11.2867 17.6205 11.2815C17.5765 11.2677 17.5313 11.2582 17.4855 11.253L16.503 11.25H16.5C16.3011 11.2496 16.1102 11.3282 15.9692 11.4686C15.8283 11.609 15.7489 11.7996 15.7485 11.9985C15.7481 12.1974 15.8267 12.3883 15.9671 12.5293C16.1075 12.6702 16.2981 12.7496 16.497 12.75H16.725V20.94C16.725 20.9505 16.731 20.9595 16.731 20.97V22.467C13.5376 19.76 11.4078 16.0081 10.7205 11.8785C10.6839 11.6842 10.5734 11.5116 10.4124 11.397C10.2513 11.2823 10.0521 11.2345 9.8565 11.2635C9.66038 11.2965 9.48542 11.4061 9.37009 11.5682C9.25476 11.7302 9.20851 11.9314 9.2415 12.1275C10.0859 17.1572 12.8911 21.6466 17.0415 24.6105C17.0565 24.621 17.0745 24.6165 17.088 24.6255C17.204 24.705 17.3404 24.7493 17.481 24.753C17.5914 24.7516 17.7001 24.7255 17.799 24.6765L17.823 24.6705C17.838 24.663 17.847 24.6435 17.862 24.6345C17.9754 24.5674 18.0686 24.471 18.132 24.3555C18.1944 24.2483 18.2285 24.127 18.231 24.003V19.893C19.6618 20.072 20.9827 20.7529 21.9585 21.8145L24.429 24.51C24.5635 24.6564 24.7506 24.7434 24.9492 24.7518C25.0475 24.756 25.1457 24.7408 25.2382 24.707C25.3306 24.6732 25.4155 24.6216 25.488 24.555C25.5605 24.4884 25.6192 24.4082 25.6606 24.319C25.7021 24.2297 25.7256 24.1332 25.7298 24.0348C25.734 23.9365 25.7188 23.8383 25.685 23.7458C25.6512 23.6534 25.5996 23.5685 25.533 23.496L23.0625 20.8005ZM22.6095 2.25H13.4055C4.545 2.25 2.25 4.5405 2.25 13.3905V22.5945C2.25 31.4565 4.5405 33.75 13.3905 33.75H22.5945C31.4565 33.75 33.75 31.4595 33.75 22.6095V13.4055C33.75 4.5435 31.4595 2.25 22.6095 2.25ZM32.25 22.6095C32.25 30.6285 30.6255 32.25 22.593 32.25H13.392C5.37 32.25 3.75 30.6255 3.75 22.593V13.392C3.75 5.37 5.3745 3.75 13.407 3.75H22.6095C30.6285 3.75 32.25 5.3745 32.25 13.407V22.6095Z" fill="#002856"/>
</svg>
