<svg width="1479" height="733" viewBox="0 0 1479 733" fill="none" xmlns="http://www.w3.org/2000/svg">
<path d="M55.8711 0L74.9609 127.576L104.76 221.162C104.76 221.162 130.523 269.657 153.648 295.659C174.769 319.408 215.341 348.738 215.341 348.738C215.341 348.738 258.118 368.822 287.509 374.346C322.624 380.945 379.001 374.346 379.001 374.346C379.001 374.346 441.58 367.704 480.968 359.447C515.502 352.207 533.746 343.46 568.269 336.166C603.469 328.73 623.389 324.241 659.294 321.965C684.155 320.39 698.537 317.715 723.082 321.965C741.556 325.165 768.944 336.166 768.944 336.166C768.944 336.166 796.087 347.767 810.616 359.447C828.644 373.939 836.305 385.409 848.097 405.309C859.991 425.381 870.446 460.716 870.446 460.716C870.446 460.716 882.402 495.017 886.975 517.752C892.452 544.979 893.959 588.524 893.959 588.524C893.959 588.524 893.959 618.178 893.959 637.18C893.959 663.727 893 705.5 893 705.5C893 705.5 890.4 744.29 893.959 768.946C896.517 786.667 896.098 797.096 902 814C906.097 825.733 909.225 833.448 917.472 842.744C928.755 855.462 940.832 857.564 957.747 859.273C980.299 861.551 999.673 854.115 1021.5 848C1039.89 842.848 1076.5 828.5 1076.5 828.5L1116.05 813.411L1170.3 796.882C1170.3 796.882 1199.05 788.525 1218.02 787.104C1229.17 786.269 1235.32 785.5 1246.5 785.5C1260.59 785.5 1268.69 785.98 1282.74 787.104C1302.59 788.694 1332.79 796.882 1332.79 796.882C1332.79 796.882 1366.13 805.721 1386.8 813.411C1424.34 827.374 1478.53 859.273 1478.53 859.273" stroke="#D0C493"/>
<path d="M0 128.972L74.9623 121.988L155.512 105.227L219.3 84.5072C219.3 84.5072 258.905 65.5448 285.881 58.2006C306.132 52.6873 318.09 52.2413 338.727 48.4229C359.365 44.6045 367.005 45.0206 384.589 48.4229C403.67 52.1148 416.341 54.3811 430.451 67.7455C442.594 79.2463 444.578 89.8558 451.171 105.227C461.983 130.436 467.932 173.438 467.932 173.438L478.874 248.4L485.858 317.775L497.033 431.615C497.033 431.615 498.616 498.132 517.752 534.281C531.645 560.526 541.337 576.801 566.408 592.714C590.152 607.786 635.783 612.037 635.783 612.037C635.783 612.037 680.016 614.486 708.184 612.037C745.629 608.781 765.533 599.674 802.469 592.714C844.065 584.877 867.505 581.093 909.325 574.556C942.366 569.391 960.666 563.902 994.065 562.217C1011.95 561.315 1022.23 559.452 1039.93 562.217C1056.18 564.757 1080.2 574.556 1080.2 574.556C1080.2 574.556 1106.91 583.168 1121.87 592.714C1140.95 604.886 1149.08 615.587 1163.55 632.989C1181.12 654.13 1188.85 667.937 1201.03 692.587C1211.61 714.005 1216.27 726.744 1223.14 749.623C1229.68 771.382 1232.02 784.009 1235.71 806.427C1240.51 835.526 1242.7 881.622 1242.7 881.622V1001.05" stroke="#D0C493" stroke-width="2"/>
<path d="M105.922 222.094L328.248 50.9844M399.02 53.5452L149.223 291.003M217.667 351.066L431.147 69.1429M450.236 101.27L291 374.347M383.189 374.347L465.368 158.073M500.987 473.055L600.859 329.881M684.202 321.035L527.294 549.181" stroke="#D0C493"/>
<path d="M569.902 595.042L734.261 325.225M812.948 359.679L613.204 608.079M686.303 613.201L853.223 415.552M878.598 487.488L760.102 603.423" stroke="#D0C493"/>
<path d="M958.211 566.64L893.492 757.072M1039.46 562.449L906 823.5M1110.93 587.359L930 852.5M1170.76 642.068L961.5 859.5M1213.13 721.919L1019 848.5" stroke="#D0C493"/>
</svg>
