<svg width="70" height="71" viewBox="0 0 70 71" fill="none" xmlns="http://www.w3.org/2000/svg">
<circle cx="35" cy="35" r="33.5" stroke="#D0C493" stroke-width="3"/>
<path d="M49.5498 52.9728V50.2061C49.5498 50.2061 48.6083 48.3794 48.9061 47.2266C49.3352 46.1625 50.9524 45.8755 51.91 44.6728C52.7927 43.564 52.8497 42.6649 53.6264 41.4805C54.5041 40.1422 55.4687 39.7098 56.2011 38.2882C56.8768 36.9768 57.2739 34.6702 57.2739 34.6702L58.7759 29.1369L61.136 25.3061L63.9253 18.9215L66.5 11.8984L60.2778 15.3036L53.6264 18.9215C53.6264 18.9215 49.4873 21.7261 47.6188 24.242C46.0649 26.3342 44.6149 30.201 44.6149 30.201C44.3943 31.5777 41.8285 37.2761 39.4655 37.6497C35.7 35.6984 35.9994 35.9499 33.887 34.6702C32.3404 33.7334 31.3977 33.2932 30.0249 32.1164C28.8148 31.079 28.2326 30.3805 27.2356 29.1369C25.9926 27.5863 24.4464 24.8805 24.4464 24.8805L21.8716 21.6882C21.8716 21.6882 20.7146 20.096 19.7261 19.3472C18.8907 18.7144 17.3659 18.0702 17.3659 18.0702C17.3659 18.0702 18.3558 21.0095 19.7261 22.3266C20.4615 23.0335 21.1189 23.1279 21.8716 23.8164C23.2017 25.0329 24.4464 27.6472 24.4464 27.6472C25.9868 30.5658 26.8544 31.9566 28.3084 33.819C28.3084 33.819 32.2 37.0984 32.8142 41.4805C32.8465 41.9781 32.8888 42.2643 32.8142 42.7574C31.9559 44.6728 27.8793 46.3754 27.8793 46.3754C27.8793 46.3754 27.4502 46.5882 20.3697 50.2061C13.2893 53.8241 10.5 65.1036 10.5 65.1036C10.5 65.1036 19.5255 62.8255 21.8716 61.9113C24.2178 60.997 25.5332 60.4845 27.8793 59.5702C30.2254 58.656 33.7646 59.4238 36.8908 57.6548C39.413 56.2276 41.3966 53.1856 42.2548 52.5472C43.0361 52.4018 43.8397 52.345 44.6149 52.3435M49.5498 52.9728C49.5498 52.9728 47.2457 52.3383 44.6149 52.3435M49.5498 52.9728V53.3984L62.6379 69.9984C62.6379 69.9984 61.1751 69.5408 60.2778 69.1472C56.5862 67.5278 52.3391 62.5497 52.3391 62.5497L45.6877 56.1651L44.6149 52.3435" stroke="#002856"/>
</svg>
