<?xml version="1.0" encoding="utf-8"?><svg viewBox="0 0 70 70" xmlns="http://www.w3.org/2000/svg" xmlns:xlink="http://www.w3.org/1999/xlink"><style>:root>svg{display:none}:root>svg:target{display:block}</style><svg viewBox="0 0 70 70" id="advantages_1-icon" xmlns="http://www.w3.org/2000/svg"><path d="M17 19c0-7.18 5.82-13 13-13h10c7.18 0 13 5.82 13 13v45H17V19z"/><path fill-rule="evenodd" clip-rule="evenodd" d="M40 7H30c-6.627 0-12 5.373-12 12v44h34V19c0-6.627-5.373-12-12-12zM30 6c-7.18 0-13 5.82-13 13v45h36V19c0-7.18-5.82-13-13-13H30z"/><path d="M41.5 42.5h6"/></svg><svg viewBox="0 0 70 70" id="advantages_2-icon" xmlns="http://www.w3.org/2000/svg"><path d="M34.245 25.4l.874 1.665.892-1.655c2.548-4.732 5.594-7.59 8.662-9.032 3.06-1.437 6.213-1.499 9.071-.521 5.736 1.962 10.377 8.164 10.387 16.056-.238 4.837-2.624 8.348-7.53 12.578-2.464 2.126-5.526 4.4-9.218 7.099l-1.517 1.107C42.7 55.008 39.12 57.62 35.138 60.67c-4.29-3.37-8.061-6.152-11.34-8.571l-.496-.366c-3.555-2.623-6.492-4.803-8.896-6.868C9.643 40.773 7.07 37.219 6.12 31.79c-.93-7.762 3.654-14.06 9.644-16.096 2.99-1.015 6.336-.973 9.555.488 3.22 1.461 6.384 4.375 8.926 9.217z"/><path d="M48.16 43.925l.874 1.665.892-1.655c1.234-2.292 2.683-3.63 4.097-4.294 1.406-.66 2.846-.688 4.155-.24 2.637.902 4.838 3.788 4.847 7.531-.112 2.21-1.184 3.844-3.585 5.914-1.213 1.047-2.726 2.17-4.572 3.52l-.756.552a287.492 287.492 0 00-5.059 3.753 232.348 232.348 0 00-5.368-4.049l-.25-.183c-1.777-1.313-3.228-2.39-4.412-3.407-2.322-1.994-3.519-3.672-3.968-6.221-.429-3.632 1.714-6.55 4.481-7.49a5.915 5.915 0 014.403.225c1.488.675 2.993 2.04 4.221 4.38z"/></svg><svg viewBox="0 0 70 70" id="advantages_3-icon" xmlns="http://www.w3.org/2000/svg"><path d="M64 25L35 9.5 5 25l30 17 29-17z"/><path d="M64 25v16m-47-2v11l18 10 18-10V39"/></svg><svg viewBox="0 0 44 32" id="link-icon" xmlns="http://www.w3.org/2000/svg"><path d="M.5 15.5a.5.5 0 000 1v-1zm29.354.854a.5.5 0 000-.708l-3.182-3.182a.5.5 0 10-.707.708L28.793 16l-2.828 2.828a.5.5 0 10.707.707l3.182-3.181zM.5 16.5h29v-1H.5v1z"/><circle cx="27.5" cy="16" r="15.5"/></svg><svg viewBox="0 0 20 21" id="phone-icon" xmlns="http://www.w3.org/2000/svg"><path d="M18.334 14.85v2.5a1.667 1.667 0 01-1.816 1.667 16.492 16.492 0 01-7.192-2.558 16.25 16.25 0 01-5-5 16.492 16.492 0 01-2.558-7.225 1.667 1.667 0 011.658-1.817h2.5A1.667 1.667 0 017.593 3.85c.105.8.301 1.586.583 2.342a1.667 1.667 0 01-.375 1.758L6.743 9.008a13.333 13.333 0 005 5L12.8 12.95a1.667 1.667 0 011.758-.375c.757.282 1.542.478 2.342.584a1.667 1.667 0 011.433 1.691z"/></svg><svg viewBox="0 0 36 36" id="telegram-icon" xmlns="http://www.w3.org/2000/svg"><path d="M32.946 4.109a.703.703 0 00-.717-.123L3.729 15.14a1.437 1.437 0 00.247 2.75l7.838 1.54v8.696a1.687 1.687 0 002.9 1.17l3.937-4.079 6.047 5.303a1.687 1.687 0 002.76-.887l5.713-24.834a.703.703 0 00-.225-.69zM3.939 16.506a.3.3 0 01.2-.32l24.56-9.61-16.453 11.79-8.052-1.58a.298.298 0 01-.255-.28zm9.966 12.007a.563.563 0 01-.966-.388v-7.918l4.863 4.261-3.897 4.045zm12.457.863a.562.562 0 01-.924.294L13.28 19.01 31.8 5.736l-5.44 23.64z"/></svg><svg viewBox="0 0 36 36" id="vk-icon" xmlns="http://www.w3.org/2000/svg"><path d="M23.063 20.8a7.551 7.551 0 00-2.328-1.695 11.045 11.045 0 004.972-6.94.75.75 0 10-1.463-.33 9.544 9.544 0 01-5.52 6.642c-.163-.027-.33-.035-.493-.051v-6.423a.73.73 0 00-.039-.194.785.785 0 00-.02-.095.75.75 0 00-.142-.215c-.008-.008-.01-.018-.017-.024a.75.75 0 00-.18-.123c-.02-.012-.037-.03-.058-.039a.769.769 0 00-.154-.032.724.724 0 00-.136-.028l-.982-.003H16.5a.75.75 0 10-.003 1.5h.228v8.19c0 .01.006.02.006.03v1.497a17.688 17.688 0 01-6.01-10.588.765.765 0 00-.864-.615.75.75 0 00-.615.864 19.252 19.252 0 007.8 12.482c.014.011.032.006.046.015.116.08.252.124.393.128a.737.737 0 00.318-.076l.024-.006c.015-.008.024-.027.039-.037a.735.735 0 00.27-.279.73.73 0 00.099-.352v-4.11a6.09 6.09 0 013.727 1.921l2.471 2.696a.75.75 0 001.104-1.014l-2.47-2.695zM22.61 2.25h-9.204C4.544 2.25 2.25 4.54 2.25 13.39v9.204c0 8.862 2.29 11.156 11.14 11.156h9.204c8.862 0 11.156-2.29 11.156-11.14v-9.204c0-8.863-2.29-11.156-11.14-11.156zm9.64 20.36c0 8.018-1.625 9.64-9.657 9.64h-9.201c-8.022 0-9.642-1.625-9.642-9.657v-9.201c0-8.022 1.625-9.642 9.657-9.642h9.203c8.018 0 9.64 1.625 9.64 9.657v9.203z"/></svg></svg>